<?xml version="1.0" encoding="UTF-8"?><svg id="uuid-1b4d0899-5446-4415-8075-31d03c2ab8a1" xmlns="http://www.w3.org/2000/svg" viewBox="0 0 30 30"><path d="M4.45,7.77c.12.09.2.24.2.41v-.82c0,.17-.08.31-.2.42ZM3.6,15.03v.82c0-.17.08-.31.2-.42-.12-.09-.2-.24-.2-.41ZM3.6,11.19v.82c0-.17.08-.31.2-.42-.12-.09-.2-.24-.2-.41ZM4.45,7.77c.12.09.2.24.2.41v-.82c0,.17-.08.31-.2.42ZM4.45,11.6c.12.1.2.25.2.42v-.82c0,.17-.08.31-.2.41ZM4.45,11.6c.12.1.2.25.2.42v-.82c0,.17-.08.31-.2.41ZM4.45,7.77c.12.09.2.24.2.41v-.82c0,.17-.08.31-.2.42ZM4.45,7.77c.12.09.2.24.2.41v-.82c0,.17-.08.31-.2.42ZM3.6,7.35v.82c0-.17.08-.31.2-.41-.12-.1-.2-.25-.2-.42Z" fill="#305cee"/><path d="M13.11,2.6h-2.6c-.29,0-.52.23-.52.53s.23.52.52.52h2.6c.29,0,.52-.23.52-.52s-.23-.53-.52-.53ZM12.1,23.4h-.59c-.29,0-.52.23-.52.52s.23.53.52.53h.59c.29,0,.52-.24.52-.53s-.23-.52-.52-.52Z" fill="#305cee"/><path d="M29.34,29.21l-3.76-6.58,1.13-8.49c.11-.85-.14-1.56-.77-2.15l-5.04-4.75c-.2-.19-.52-.19-.72,0-.06.06-.12.12-.17.19V1.82c0-1-.81-1.82-1.81-1.82H5.43c-1.01,0-1.82.82-1.82,1.82v3.76c-.29-.17-.63-.26-.98-.26-1.12,0-2.03.91-2.03,2.03v.82c0,.6.26,1.14.68,1.51-.42.37-.68.91-.68,1.51v.82c0,.6.26,1.14.67,1.51-.41.37-.67.91-.67,1.51v.82c0,.6.26,1.14.68,1.51-.42.37-.68.91-.68,1.51v.82c0,1.12.91,2.03,2.03,2.03.35,0,.69-.09.98-.26v3.76c0,1,.81,1.81,1.82,1.81h6.07l1.54,2.69c.1.17.28.27.45.27.09,0,.18-.03.26-.07.25-.14.34-.46.19-.71l-1.24-2.18h5.49c1,0,1.81-.81,1.81-1.81v-7.8c.45-.75,1.08-1.26,1.98-1.62.15-.06.27-.19.31-.35l.3-1.13c.05-.18,0-.37-.13-.5l-1.55-1.55c-1.06-1.06-1.17-2.71-.33-3.89l4.65,4.37c.39.36.52.72.44,1.26l-1.15,8.65c0,.11,0,.23.06.32l3.84,6.74c.09.17.27.27.45.27.08,0,.18-.03.26-.07.25-.14.33-.46.19-.71ZM3.6,19.7c0,.55-.44.98-.98.98s-.99-.44-.99-.98v-.82c0-.55.44-.99.99-.99s.98.44.98.99v.82ZM3.6,15.86c0,.55-.44.99-.98.99s-.99-.44-.99-.99v-.82c0-.55.44-.99.99-.99s.98.44.98.99c0,.17.08.31.2.41-.12.1-.2.25-.2.42ZM3.6,12.01c0,.55-.44.99-.98.99s-.99-.44-.99-.99v-.82c0-.55.44-.99.99-.99s.98.44.98.99c0,.17.08.31.2.41-.12.1-.2.25-.2.42ZM3.6,8.17c0,.55-.44.99-.98.99s-.99-.44-.99-.99v-.82c0-.55.44-.99.99-.99s.98.44.98.99c0,.17.08.31.2.42-.12.09-.2.24-.2.41ZM18.97,25.22c0,.43-.35.78-.78.78H5.43c-.43,0-.78-.35-.78-.78v-13.21c0-.17-.08-.31-.2-.42.12-.09.2-.24.2-.41v-3.02c0-.17-.08-.31-.2-.41.12-.1.2-.25.2-.42V1.82c0-.43.35-.78.78-.78h12.76c.43,0,.78.35.78.78v23.4ZM20.17,13.01l1.33,1.33-.15.59c-.52.23-.96.51-1.35.86v-2.97c.05.06.1.12.17.19Z" fill="#305cee"/><path d="M13.36,12.88c.41-.39.66-.95.66-1.56,0-1.21-.99-2.21-2.21-2.21s-2.2,1-2.2,2.21c0,.61.25,1.17.65,1.56-.99.56-1.67,1.62-1.67,2.83v1.12c0,.29.23.53.52.53h5.41c.29,0,.53-.24.53-.53v-1.12c0-1.21-.68-2.28-1.68-2.83ZM10.64,11.31c0-.64.53-1.17,1.17-1.17s1.18.53,1.18,1.17-.53,1.17-1.18,1.17-1.17-.52-1.17-1.17ZM13.99,16.31h-4.36v-.6c0-1.2.97-2.18,2.18-2.18s2.18.98,2.18,2.18v.6Z" fill="#305cee"/><path d="M16.89,19.95h-1.71c-.29,0-.52-.23-.52-.52s.23-.52.52-.52h1.19v-1.19c0-.29.23-.52.52-.52s.52.23.52.52v1.71c0,.29-.23.52-.52.52ZM8.44,19.95h-1.71c-.29,0-.52-.23-.52-.52v-1.71c0-.29.23-.52.52-.52s.52.23.52.52v1.19h1.19c.29,0,.52.23.52.52s-.23.52-.52.52ZM16.89,9.85c-.29,0-.52-.23-.52-.52v-1.19h-1.19c-.29,0-.52-.23-.52-.52s.23-.52.52-.52h1.71c.29,0,.52.23.52.52v1.71c0,.29-.23.52-.52.52ZM6.73,9.85c-.29,0-.52-.23-.52-.52v-1.71c0-.29.23-.52.52-.52h1.71c.29,0,.52.23.52.52s-.23.52-.52.52h-1.19v1.19c0,.29-.23.52-.52.52Z" fill="#305cee"/></svg>